<svg xmlns="http://www.w3.org/2000/svg" xmlns:xlink="http://www.w3.org/1999/xlink" width="820" zoomAndPan="magnify" viewBox="0 0 615 221.999995" height="296" preserveAspectRatio="xMidYMid meet" version="1.0"><defs><g/><clipPath id="dccc93d283"><path d="M 126.433594 97 L 184 97 L 184 182.496094 L 126.433594 182.496094 Z M 126.433594 97 " clip-rule="nonzero"/></clipPath><clipPath id="fddc7c6787"><path d="M 134.5 109.035156 L 175.75 109.035156 L 175.75 170.535156 L 134.5 170.535156 Z M 134.5 109.035156 " clip-rule="nonzero"/></clipPath><clipPath id="e2e5ec225b"><path d="M 398.890625 21.160156 L 453.640625 21.160156 L 453.640625 103.660156 L 398.890625 103.660156 Z M 398.890625 21.160156 " clip-rule="nonzero"/></clipPath><clipPath id="1ac132ae10"><path d="M 406.625 32.703125 L 446.375 32.703125 L 446.375 91.953125 L 406.625 91.953125 Z M 406.625 32.703125 " clip-rule="nonzero"/></clipPath></defs><g fill="#000000" fill-opacity="1"><g transform="translate(129.152569, 151.199988)"><g><path d="M 25.921875 -105 C 30.398438 -105 34.898438 -104.78125 39.421875 -104.34375 C 43.941406 -103.90625 47.722656 -103.242188 50.765625 -102.359375 L 50.765625 -90.125 C 48.679688 -91.476562 45.878906 -92.515625 42.359375 -93.234375 C 38.835938 -93.953125 35.597656 -94.394531 32.640625 -94.5625 L 32.640625 0 C 27.441406 -0.394531 23 -0.957031 19.3125 -1.6875 L 19.3125 -94.4375 C 16.351562 -94.28125 13.113281 -93.84375 9.59375 -93.125 C 6.070312 -92.40625 3.273438 -91.363281 1.203125 -90 L 1.203125 -102.234375 C 4.242188 -103.117188 8.019531 -103.78125 12.53125 -104.21875 C 17.050781 -104.65625 21.515625 -104.914062 25.921875 -105 Z M 25.921875 -105 "/></g></g></g><g clip-path="url(#dccc93d283)"><path fill="#ffffff" d="M 155.28125 97.238281 C 155.890625 103.164062 156.40625 109.152344 157.324219 115.042969 C 158.363281 121.707031 159.832031 129.285156 165.316406 133.757812 C 170.023438 137.59375 177.296875 139.050781 183.207031 139.832031 C 183.382812 139.855469 183.839844 139.695312 183.71875 140.039062 C 175.347656 141.609375 165.925781 143.835938 161.414062 151.800781 C 158.640625 156.699219 157.679688 163.113281 156.890625 168.644531 C 156.222656 173.304688 155.753906 178.023438 155.277344 182.699219 C 155.019531 182.644531 155.011719 182.414062 154.984375 182.199219 C 153.902344 172.328125 153.832031 156.65625 147.128906 148.917969 C 142.050781 143.054688 133.839844 141.378906 126.554688 140.039062 C 126.445312 139.691406 126.878906 139.859375 127.0625 139.828125 C 141.320312 137.574219 148.824219 134.980469 152.039062 119.765625 C 153.585938 112.445312 154.0625 104.875 154.992188 97.453125 C 155.019531 97.257812 155.09375 96.996094 155.28125 97.238281 Z M 155.28125 97.238281 " fill-opacity="1" fill-rule="nonzero"/></g><g clip-path="url(#fddc7c6787)"><path fill="#894eee" d="M 155.238281 109.210938 C 155.679688 113.46875 156.050781 117.773438 156.710938 122.011719 C 157.457031 126.800781 158.511719 132.25 162.457031 135.464844 C 165.839844 138.222656 171.070312 139.269531 175.320312 139.832031 C 175.445312 139.847656 175.773438 139.734375 175.6875 139.980469 C 169.667969 141.113281 162.890625 142.710938 159.648438 148.441406 C 157.65625 151.960938 156.964844 156.570312 156.398438 160.546875 C 155.917969 163.898438 155.578125 167.292969 155.238281 170.652344 C 155.050781 170.613281 155.046875 170.449219 155.027344 170.292969 C 154.25 163.199219 154.199219 151.929688 149.378906 146.363281 C 145.726562 142.152344 139.824219 140.945312 134.585938 139.980469 C 134.507812 139.730469 134.816406 139.851562 134.953125 139.832031 C 145.203125 138.210938 150.597656 136.34375 152.910156 125.40625 C 154.019531 120.140625 154.363281 114.699219 155.035156 109.363281 C 155.050781 109.222656 155.105469 109.035156 155.238281 109.210938 Z M 155.238281 109.210938 " fill-opacity="1" fill-rule="nonzero"/></g><g fill="#000000" fill-opacity="1"><g transform="translate(175.264544, 145.897289)"><g><path d="M 18.609375 -58.140625 L 19.859375 -58.140625 C 21.523438 -61.671875 23.625 -64.21875 26.15625 -65.78125 C 28.6875 -67.34375 31.582031 -68.125 34.84375 -68.125 C 37.894531 -68.125 40.6875 -67.148438 43.21875 -65.203125 C 45.75 -63.265625 47.773438 -60.316406 49.296875 -56.359375 C 50.816406 -52.410156 51.578125 -47.382812 51.578125 -41.28125 L 51.578125 0 C 49.222656 -0.132812 47.003906 -0.289062 44.921875 -0.46875 C 42.847656 -0.644531 41.117188 -0.835938 39.734375 -1.046875 L 39.734375 -41.28125 C 39.734375 -47.59375 38.929688 -52.132812 37.328125 -54.90625 C 35.734375 -57.6875 33.34375 -59.078125 30.15625 -59.078125 C 27.039062 -59.078125 24.335938 -57.6875 22.046875 -54.90625 C 19.753906 -52.132812 18.609375 -47.800781 18.609375 -41.90625 L 18.609375 0 C 16.253906 -0.132812 14.035156 -0.289062 11.953125 -0.46875 C 9.878906 -0.644531 8.148438 -0.835938 6.765625 -1.046875 L 6.765625 -89.546875 C 8.285156 -89.890625 10.082031 -90.179688 12.15625 -90.421875 C 14.238281 -90.671875 16.390625 -90.863281 18.609375 -91 Z M 18.609375 -58.140625 "/></g></g></g><g fill="#000000" fill-opacity="1"><g transform="translate(227.572142, 145.897289)"><g><path d="M 42.125 -12.890625 L 42.125 -2.28125 C 40.382812 -1.59375 38.769531 -1.039062 37.28125 -0.625 C 35.789062 -0.207031 34.039062 0 32.03125 0 C 28.5 0 25.050781 -0.570312 21.6875 -1.71875 C 18.320312 -2.863281 15.269531 -4.835938 12.53125 -7.640625 C 9.789062 -10.453125 7.625 -14.300781 6.03125 -19.1875 C 4.4375 -24.070312 3.640625 -30.257812 3.640625 -37.75 C 3.640625 -43.71875 4.539062 -48.96875 6.34375 -53.5 C 8.144531 -58.039062 10.832031 -61.613281 14.40625 -64.21875 C 17.976562 -66.820312 22.363281 -68.125 27.5625 -68.125 C 31.71875 -68.125 35.21875 -67.1875 38.0625 -65.3125 C 40.90625 -63.4375 43.054688 -61.023438 44.515625 -58.078125 C 45.972656 -55.128906 46.703125 -52.03125 46.703125 -48.78125 C 47.046875 -42.46875 45.101562 -37.578125 40.875 -34.109375 C 36.644531 -30.640625 30.507812 -28.90625 22.46875 -28.90625 C 21.289062 -28.90625 20.128906 -28.941406 18.984375 -29.015625 C 17.835938 -29.085938 16.78125 -29.226562 15.8125 -29.4375 C 16.363281 -25.132812 17.28125 -21.644531 18.5625 -18.96875 C 19.84375 -16.300781 21.316406 -14.238281 22.984375 -12.78125 C 24.648438 -11.332031 26.363281 -10.347656 28.125 -9.828125 C 29.894531 -9.304688 31.546875 -9.046875 33.078125 -9.046875 C 34.734375 -9.046875 36.21875 -9.359375 37.53125 -9.984375 C 38.851562 -10.609375 40.382812 -11.578125 42.125 -12.890625 Z M 26.515625 -59.28125 C 23.253906 -59.28125 20.566406 -57.441406 18.453125 -53.765625 C 16.335938 -50.085938 15.28125 -44.816406 15.28125 -37.953125 L 22.46875 -37.953125 C 24.894531 -37.953125 27.039062 -38.175781 28.90625 -38.625 C 30.78125 -39.082031 32.238281 -40.070312 33.28125 -41.59375 C 34.320312 -43.125 34.84375 -45.519531 34.84375 -48.78125 C 34.84375 -52.101562 34.0625 -54.679688 32.5 -56.515625 C 30.9375 -58.359375 28.941406 -59.28125 26.515625 -59.28125 Z M 26.515625 -59.28125 "/></g></g></g><g fill="#000000" fill-opacity="1"><g transform="translate(271.456375, 145.897289)"><g><path d="M 34.84375 -65.734375 L 34.84375 -55.125 C 34.082031 -55.675781 33.144531 -56.226562 32.03125 -56.78125 C 30.925781 -57.332031 29.46875 -57.609375 27.65625 -57.609375 C 24.820312 -57.609375 22.570312 -56.515625 20.90625 -54.328125 C 19.238281 -52.148438 18.40625 -48.878906 18.40625 -44.515625 L 18.40625 0 C 13.96875 -0.28125 10.15625 -0.765625 6.96875 -1.453125 L 6.96875 -55.640625 C 7.039062 -57.992188 6.867188 -60.054688 6.453125 -61.828125 C 6.035156 -63.597656 5.445312 -65.175781 4.6875 -66.5625 L 17.6875 -66.5625 C 17.6875 -66.5625 17.71875 -66.054688 17.78125 -65.046875 C 17.851562 -64.046875 17.941406 -62.851562 18.046875 -61.46875 C 18.148438 -60.082031 18.234375 -58.726562 18.296875 -57.40625 L 19.34375 -57.40625 C 20.519531 -61.082031 22.007812 -63.785156 23.8125 -65.515625 C 25.613281 -67.253906 27.554688 -68.125 29.640625 -68.125 C 31.023438 -68.125 32.164062 -67.894531 33.0625 -67.4375 C 33.96875 -66.988281 34.5625 -66.421875 34.84375 -65.734375 Z M 34.84375 -65.734375 "/></g></g></g><g fill="#000000" fill-opacity="1"><g transform="translate(299.741739, 145.897289)"><g><path d="M 44.828125 -49.609375 L 44.828125 -10.921875 C 44.753906 -8.566406 44.925781 -6.503906 45.34375 -4.734375 C 45.757812 -2.960938 46.347656 -1.382812 47.109375 0 L 34.109375 0 C 34.109375 0 34.070312 -0.5 34 -1.5 C 33.9375 -2.507812 33.851562 -3.722656 33.75 -5.140625 C 33.644531 -6.566406 33.554688 -7.90625 33.484375 -9.15625 L 32.765625 -9.15625 C 30.546875 -2.707031 25.96875 0.515625 19.03125 0.515625 C 15.84375 0.515625 13.015625 -0.332031 10.546875 -2.03125 C 8.085938 -3.726562 6.164062 -6.050781 4.78125 -9 C 3.394531 -11.945312 2.703125 -15.222656 2.703125 -18.828125 C 2.492188 -23.054688 3.304688 -26.988281 5.140625 -30.625 C 6.984375 -34.269531 9.738281 -37.21875 13.40625 -39.46875 C 17.082031 -41.71875 21.59375 -42.84375 26.9375 -42.84375 C 28.113281 -42.84375 29.238281 -42.773438 30.3125 -42.640625 C 31.382812 -42.503906 32.375 -42.332031 33.28125 -42.125 L 33.28125 -49.609375 C 33.28125 -52.929688 32.585938 -55.335938 31.203125 -56.828125 C 29.816406 -58.328125 27.25 -59.078125 23.5 -59.078125 C 20.519531 -59.078125 17.726562 -58.660156 15.125 -57.828125 C 12.53125 -56.992188 10.332031 -55.78125 8.53125 -54.1875 L 8.53125 -65.828125 C 11.164062 -66.585938 13.9375 -67.160156 16.84375 -67.546875 C 19.757812 -67.929688 23.125 -68.125 26.9375 -68.125 C 32.6875 -68.125 37.101562 -66.457031 40.1875 -63.125 C 43.28125 -59.800781 44.828125 -55.296875 44.828125 -49.609375 Z M 33.28125 -33.796875 L 26.9375 -33.796875 C 23.332031 -33.796875 20.367188 -32.53125 18.046875 -30 C 15.722656 -27.46875 14.5625 -23.742188 14.5625 -18.828125 C 14.5625 -15.492188 15.359375 -12.90625 16.953125 -11.0625 C 18.546875 -9.226562 20.519531 -8.3125 22.875 -8.3125 C 26.34375 -8.3125 28.941406 -9.488281 30.671875 -11.84375 C 32.410156 -14.207031 33.28125 -17.570312 33.28125 -21.9375 Z M 33.28125 -33.796875 "/></g></g></g><g fill="#000000" fill-opacity="1"><g transform="translate(346.018436, 145.897289)"><g/></g></g><g fill="#000000" fill-opacity="1"><g transform="translate(361.304846, 145.897289)"><g><path d="M 56.46875 0 L 40.875 0 C 41.289062 -3.601562 40.976562 -7.867188 39.9375 -12.796875 C 36.050781 -14.804688 31.890625 -15.757812 27.453125 -15.65625 C 23.015625 -15.550781 18.890625 -14.351562 15.078125 -12.0625 C 14.109375 -7.625 13.832031 -3.601562 14.25 0 L 0 0 C 1.101562 -1.382812 2.070312 -2.960938 2.90625 -4.734375 C 3.738281 -6.503906 4.398438 -8.53125 4.890625 -10.8125 L 22.5625 -89.546875 C 24.09375 -89.890625 25.789062 -90.179688 27.65625 -90.421875 C 29.53125 -90.671875 31.578125 -90.863281 33.796875 -91 L 51.796875 -10.71875 C 52.347656 -8.425781 53.019531 -6.410156 53.8125 -4.671875 C 54.613281 -2.941406 55.5 -1.382812 56.46875 0 Z M 36.1875 -23.40625 L 37.234375 -23.40625 L 29.953125 -60.109375 C 29.671875 -61.429688 29.476562 -62.488281 29.375 -63.28125 C 29.269531 -64.082031 29.148438 -64.84375 29.015625 -65.5625 C 28.878906 -66.289062 28.632812 -67.210938 28.28125 -68.328125 L 27.25 -68.328125 C 26.90625 -67.210938 26.660156 -66.289062 26.515625 -65.5625 C 26.378906 -64.84375 26.257812 -64.082031 26.15625 -63.28125 C 26.050781 -62.488281 25.859375 -61.429688 25.578125 -60.109375 L 18.203125 -23.40625 L 19.234375 -23.40625 C 21.867188 -24.582031 24.660156 -25.171875 27.609375 -25.171875 C 30.554688 -25.171875 33.414062 -24.582031 36.1875 -23.40625 Z M 36.1875 -23.40625 "/></g></g></g><g fill="#000000" fill-opacity="1"><g transform="translate(412.260543, 145.897289)"><g><path d="M 19.65625 -66.5625 L 19.65625 0 C 17.300781 -0.132812 15.082031 -0.289062 13 -0.46875 C 10.914062 -0.644531 9.179688 -0.835938 7.796875 -1.046875 L 7.796875 -65.109375 C 9.328125 -65.453125 11.128906 -65.742188 13.203125 -65.984375 C 15.285156 -66.234375 17.4375 -66.425781 19.65625 -66.5625 Z M 19.65625 -91 L 19.65625 -78.9375 C 17.300781 -79.070312 15.082031 -79.207031 13 -79.34375 C 10.914062 -79.488281 9.179688 -79.695312 7.796875 -79.96875 L 7.796875 -89.640625 C 9.328125 -89.992188 11.148438 -90.273438 13.265625 -90.484375 C 15.378906 -90.691406 17.507812 -90.863281 19.65625 -91 Z M 19.65625 -91 "/></g></g></g><g clip-path="url(#e2e5ec225b)"><path fill="#ffffff" d="M 426.550781 21.394531 C 427.136719 27.074219 427.632812 32.816406 428.515625 38.46875 C 429.511719 44.859375 430.917969 52.125 436.179688 56.414062 C 440.691406 60.09375 447.667969 61.488281 453.335938 62.238281 C 453.503906 62.261719 453.941406 62.109375 453.824219 62.4375 C 445.796875 63.945312 436.761719 66.078125 432.433594 73.71875 C 429.773438 78.414062 428.855469 84.566406 428.097656 89.867188 C 427.457031 94.339844 427.007812 98.863281 426.550781 103.347656 C 426.300781 103.292969 426.292969 103.074219 426.269531 102.867188 C 425.230469 93.402344 425.164062 78.375 418.734375 70.949219 C 413.867188 65.332031 405.992188 63.722656 399.003906 62.4375 C 398.902344 62.101562 399.316406 62.265625 399.492188 62.238281 C 413.167969 60.074219 420.363281 57.585938 423.445312 42.996094 C 424.925781 35.972656 425.382812 28.714844 426.277344 21.601562 C 426.300781 21.410156 426.375 21.160156 426.554688 21.394531 Z M 426.550781 21.394531 " fill-opacity="1" fill-rule="nonzero"/></g><g clip-path="url(#1ac132ae10)"><path fill="#894eee" d="M 426.515625 32.875 C 426.9375 36.957031 427.292969 41.085938 427.925781 45.152344 C 428.644531 49.746094 429.65625 54.972656 433.4375 58.054688 C 436.683594 60.703125 441.699219 61.703125 445.777344 62.246094 C 445.898438 62.261719 446.210938 62.152344 446.128906 62.386719 C 440.355469 63.472656 433.855469 65.003906 430.746094 70.5 C 428.832031 73.875 428.171875 78.300781 427.625 82.113281 C 427.167969 85.328125 426.84375 88.582031 426.515625 91.804688 C 426.335938 91.765625 426.332031 91.609375 426.3125 91.460938 C 425.566406 84.65625 425.519531 73.847656 420.894531 68.507812 C 417.394531 64.46875 411.730469 63.3125 406.707031 62.386719 C 406.632812 62.148438 406.929688 62.261719 407.058594 62.242188 C 416.890625 60.6875 422.066406 58.898438 424.28125 48.40625 C 425.347656 43.359375 425.675781 38.136719 426.320312 33.023438 C 426.335938 32.886719 426.390625 32.707031 426.515625 32.875 Z M 426.515625 32.875 " fill-opacity="1" fill-rule="nonzero"/></g></svg>